<?xml version="1.0" standalone="no"?>
<!DOCTYPE svg PUBLIC "-//W3C//DTD SVG 20010904//EN" "http://www.w3.org/TR/2001/REC-SVG-20010904/DTD/svg10.dtd">
<!-- Created using Krita: http://krita.org -->
<svg xmlns="http://www.w3.org/2000/svg"
    xmlns:xlink="http://www.w3.org/1999/xlink"
    xmlns:krita="http://krita.org/namespaces/svg/krita"
    xmlns:sodipodi="http://sodipodi.sourceforge.net/DTD/sodipodi-0.dtd"
    width="46.08pt"
    height="46.08pt"
    viewBox="0 0 46.08 46.08">
<defs/>
<rect id="shape0" transform="translate(14.4, 8.64)" fill="none" stroke="#ff6daf" stroke-width="4.32" stroke-linecap="square" stroke-linejoin="bevel" width="23.76" height="23.76" rx="0.72" ry="0.72"/><path id="shape1" transform="translate(3.95999971031987, 3.99374970785101)" fill="#ff6daf" fill-rule="evenodd" stroke="#ff6daf" stroke-width="0.72" stroke-linecap="square" stroke-linejoin="bevel" d="M3.555 1.82819C3.555 0.849609 2.79247 0 1.79894 0C0.805413 0 1.21668e-16 0.793295 4.61295e-34 1.77187C-1.21668e-16 2.75045 0.805413 3.54375 1.79894 3.54375C2.79247 3.54375 3.555 2.80677 3.555 1.82819Z"/><path id="shape2" transform="translate(3.92988324713236, 21.5999632726566)" fill="#ff6daf" fill-rule="evenodd" stroke="#ff6daf" stroke-width="0.72" stroke-linecap="square" stroke-linejoin="bevel" d="M3.61887 16.605C21.5671 16.8872 32.9709 16.9959 37.8301 16.9313C38.7182 16.9195 39.3251 18.468 39.3224 18.7617C39.3198 19.0502 38.9196 20.5228 37.8076 20.52C30.6467 20.502 7.53833 20.375 1.81887 20.5313C0.964552 20.5546 0.0212052 19.0811 0.0188668 18.7088C-0.0176302 12.8973 0.0081781 7.16061 0.0188668 1.44004C0.0204758 0.578901 1.53365 0.00517178 1.81295 3.67273e-05C2.10259 -0.00528822 3.61564 0.568851 3.61887 1.44004C3.6296 4.34128 3.6296 9.35878 3.61887 16.4925"/><path id="shape0" transform="matrix(0.999999958772983 0 0 0.999999954147517 3.99661634005787 12.5747412879323)" fill="#ff6daf" fill-rule="evenodd" stroke="#ff6daf" stroke-width="0.72" stroke-linecap="square" stroke-linejoin="bevel" d="M3.555 1.82819C3.555 0.849609 2.79247 0 1.79894 0C0.805413 0 1.21668e-16 0.793295 4.61295e-34 1.77187C-1.21668e-16 2.75045 0.805413 3.54375 1.79894 3.54375C2.79247 3.54375 3.555 2.80677 3.555 1.82819Z"/><path id="shape01" transform="matrix(0.999999961195995 0 0 0.999999971216335 19.8035095397172 14.0423176587953)" fill="#ff6daf" fill-rule="evenodd" stroke="#ff6daf" stroke-width="0.72" stroke-linecap="square" stroke-linejoin="bevel" d="M3.555 1.82819C3.555 0.849609 2.79247 0 1.79894 0C0.805413 0 1.21668e-16 0.793295 4.61295e-34 1.77187C-1.21668e-16 2.75045 0.805413 3.54375 1.79894 3.54375C2.79247 3.54375 3.555 2.80677 3.555 1.82819Z"/><path id="shape02" transform="matrix(0.999999961195995 0 0 0.999999971216335 29.1664709212614 14.0792657224142)" fill="#ff6daf" fill-rule="evenodd" stroke="#ff6daf" stroke-width="0.72" stroke-linecap="square" stroke-linejoin="bevel" d="M3.555 1.82819C3.555 0.849609 2.79247 0 1.79894 0C0.805413 0 1.21668e-16 0.793295 4.61295e-34 1.77187C-1.21668e-16 2.75045 0.805413 3.54375 1.79894 3.54375C2.79247 3.54375 3.555 2.80677 3.555 1.82819Z"/><path id="shape03" transform="matrix(0.999999961195995 0 0 0.999999971216335 19.7871313616829 23.4274478786672)" fill="#ff6daf" fill-rule="evenodd" stroke="#ff6daf" stroke-width="0.72" stroke-linecap="square" stroke-linejoin="bevel" d="M3.555 1.82819C3.555 0.849609 2.79247 0 1.79894 0C0.805413 0 1.21668e-16 0.793295 4.61295e-34 1.77187C-1.21668e-16 2.75045 0.805413 3.54375 1.79894 3.54375C2.79247 3.54375 3.555 2.80677 3.555 1.82819Z"/><path id="shape04" transform="matrix(0.999999961195995 0 0 0.999999971216335 29.1661397496861 23.4370420200308)" fill="#ff6daf" fill-rule="evenodd" stroke="#ff6daf" stroke-width="0.72" stroke-linecap="square" stroke-linejoin="bevel" d="M3.555 1.82819C3.555 0.849609 2.79247 0 1.79894 0C0.805413 0 1.21668e-16 0.793295 4.61295e-34 1.77187C-1.21668e-16 2.75045 0.805413 3.54375 1.79894 3.54375C2.79247 3.54375 3.555 2.80677 3.555 1.82819Z"/>
</svg>
